<svg width="53" height="20" viewBox="0 0 53 20" fill="none" xmlns="http://www.w3.org/2000/svg">
<path fill-rule="evenodd" clip-rule="evenodd" d="M53 5.14069V2C53 1.19479 52.5242 0.500716 51.8383 0.183648L38.2672 20H43.6051L43 19.6506L53 5.14069ZM45.2672 20H51C52.1046 20 53 19.1046 53 18V8.70865L45.2672 20ZM44.9641 0H49.5429L36 19.6506L36.6051 20H31.2672L44.9641 0ZM42.5429 0H37.9641L24.2672 20H29.6051L29 19.6506L42.5429 0ZM30.9641 0H35.5429L22 19.6506L22.6051 20H17.2672L30.9641 0ZM28.5429 0H23.9641L10.2672 20H15.6051L15 19.6506L28.5429 0ZM16.9641 0H21.5429L8 19.6506L8.60512 20H3.26715L16.9641 0ZM14.5429 0H9.9641L0 14.5494V18C0 18.9293 0.633797 19.7106 1.49271 19.9351L1 19.6506L14.5429 0ZM2 0H7.54287L0 10.9447V2C0 0.895431 0.895431 0 2 0Z" fill="#FFDED4"/>
</svg>
