<svg width="25" height="25" viewBox="0 0 25 25" fill="none" xmlns="http://www.w3.org/2000/svg">
<mask id="mask0_6253_4190" style="mask-type:alpha" maskUnits="userSpaceOnUse" x="0" y="4" width="25" height="17">
<path d="M12.5 4.68738C5.59645 4.68738 0 8.18512 0 12.4999C0 16.8146 5.59645 20.3123 12.5 20.3123C19.4036 20.3123 25 16.8146 25 12.4999C25 8.18512 19.4036 4.68738 12.5 4.68738Z" fill="white"/>
</mask>
<g mask="url(#mask0_6253_4190)">
<path d="M20.5078 12.4999C20.5078 19.965 15.7233 23.6206 14.5303 24.3663C13.7135 24.8767 13.1202 25.0635 12.8757 25.1281C12.7341 25.1655 12.6364 25.1814 12.5824 25.1883C12.5275 25.1953 12.501 25.1953 12.4999 25.1953V-15.8203C5.81949 -15.8203 -1.20178 -14.1688 -7.20799 -10.4149C-12.9251 -6.84164 -20.5078 0.720257 -20.5078 12.4999H20.5078ZM12.4999 25.1953C12.499 25.1953 12.4724 25.1953 12.4175 25.1883C12.3635 25.1814 12.2658 25.1655 12.1243 25.1281C11.8798 25.0635 11.2864 24.8767 10.4697 24.3663C9.27661 23.6206 4.49215 19.965 4.49215 12.4999H45.5078C45.5078 0.720257 37.9251 -6.84164 32.2079 -10.4149C26.2017 -14.1688 19.1804 -15.8203 12.4999 -15.8203V25.1953ZM4.49215 12.4999C4.49215 5.03494 9.27661 1.37934 10.4697 0.633677C11.2864 0.123218 11.8798 -0.0635538 12.1243 -0.128196C12.2658 -0.165607 12.3635 -0.181441 12.4175 -0.188348C12.4724 -0.195373 12.499 -0.195315 12.4999 -0.195315V40.8203C19.1804 40.8203 26.2017 39.1687 32.2079 35.4148C37.9251 31.8416 45.5078 24.2797 45.5078 12.4999H4.49215ZM12.4999 -0.195315C12.501 -0.195315 12.5275 -0.195373 12.5824 -0.188348C12.6364 -0.181441 12.7341 -0.165607 12.8757 -0.128196C13.1202 -0.0635538 13.7135 0.123218 14.5303 0.633677C15.7233 1.37934 20.5078 5.03494 20.5078 12.4999H-20.5078C-20.5078 24.2797 -12.9251 31.8416 -7.20799 35.4148C-1.20178 39.1687 5.81949 40.8203 12.4999 40.8203V-0.195315Z" fill="#FF7070" fill-opacity="0.5"/>
</g>
<mask id="mask1_6253_4190" style="mask-type:alpha" maskUnits="userSpaceOnUse" x="2" y="2" width="22" height="22">
<path d="M7.06573 7.06577C2.18417 11.9473 0.700174 18.3779 3.75112 21.4289C6.80213 24.4798 13.2327 22.9958 18.1143 18.1142C22.9958 13.2327 24.4798 6.80211 21.4288 3.75115C18.3779 0.700204 11.9473 2.18419 7.06573 7.06577Z" fill="white"/>
</mask>
<g mask="url(#mask1_6253_4190)">
<path d="M18.2523 6.92757C23.5309 12.2062 22.7326 18.1742 22.4163 19.5451C22.1997 20.4835 21.9123 21.0352 21.785 21.2538C21.7114 21.3803 21.6535 21.4606 21.6202 21.5037C21.5864 21.5475 21.5675 21.5662 21.5668 21.5669L-7.43555 -7.43552C-12.1593 -2.71172 -15.9563 3.42093 -17.549 10.3224C-19.0649 16.8916 -19.0796 27.6005 -10.7501 35.93L18.2523 6.92757ZM21.5668 21.5669C21.5661 21.5676 21.5474 21.5864 21.5036 21.6202C21.4605 21.6536 21.3803 21.7115 21.2537 21.7851C21.0351 21.9123 20.4835 22.1998 19.545 22.4164C18.1741 22.7327 12.2061 23.5309 6.92753 18.2523L35.9299 -10.75C27.6004 -19.0796 16.8916 -19.0649 10.3223 -17.5489C3.42083 -15.9562 -2.71175 -12.1593 -7.43555 -7.43552L21.5668 21.5669ZM6.92753 18.2523C1.64899 12.9738 2.4472 7.00574 2.76352 5.63484C2.98012 4.69638 3.26759 4.14479 3.39481 3.92613C3.4684 3.79962 3.52631 3.71935 3.55963 3.67625C3.59347 3.63244 3.61224 3.61377 3.61296 3.61305L32.6154 32.6154C37.3392 27.8916 41.1361 21.759 42.7288 14.8576C44.2448 8.28828 44.2595 -2.42056 35.9299 -10.75L6.92753 18.2523ZM3.61296 3.61305C3.61368 3.61233 3.6324 3.59351 3.67621 3.55967C3.71926 3.52635 3.79958 3.4685 3.92609 3.39486C4.1447 3.26763 4.69633 2.98016 5.6348 2.76361C7.00569 2.44724 12.9737 1.64903 18.2523 6.92757L-10.7501 35.93C-2.42058 44.2595 8.28824 44.2448 14.8575 42.7289C21.7589 41.1362 27.8916 37.3392 32.6154 32.6154L3.61296 3.61305Z" fill="#FFF970" fill-opacity="0.5"/>
</g>
<mask id="mask2_6253_4190" style="mask-type:alpha" maskUnits="userSpaceOnUse" x="2" y="2" width="22" height="22">
<path d="M18.1139 7.06574C13.2323 2.18419 6.80173 0.700197 3.75077 3.75117C0.699801 6.80213 2.18379 13.2327 7.06534 18.1143C11.9469 22.9958 18.3775 24.4798 21.4284 21.4288C24.4794 18.3779 22.9954 11.9473 18.1139 7.06574Z" fill="white"/>
</mask>
<g mask="url(#mask2_6253_4190)">
<path d="M18.2523 18.2524C12.9737 23.5309 7.00569 22.7327 5.6348 22.4164C4.69633 22.1998 4.1447 21.9123 3.92609 21.7851C3.79958 21.7115 3.71931 21.6536 3.67621 21.6203C3.6324 21.5864 3.61368 21.5676 3.61296 21.5669L32.6154 -7.43552C27.8916 -12.1593 21.7589 -15.9562 14.8575 -17.5489C8.28824 -19.0649 -2.42058 -19.0796 -10.7501 -10.7501L18.2523 18.2524ZM3.61296 21.5669C3.61224 21.5662 3.59347 21.5475 3.55963 21.5037C3.52631 21.4606 3.4684 21.3803 3.39481 21.2538C3.26759 21.0352 2.98012 20.4835 2.76352 19.5451C2.4472 18.1742 1.64899 12.2061 6.92753 6.92757L35.9299 35.93C44.2595 27.6005 44.2448 16.8916 42.7288 10.3224C41.1361 3.42093 37.3392 -2.71172 32.6154 -7.43552L3.61296 21.5669ZM6.92753 6.92757C12.2061 1.64902 18.1741 2.44724 19.545 2.76361C20.4835 2.98016 21.0351 3.26763 21.2537 3.39486C21.3803 3.46845 21.4605 3.52635 21.5036 3.55968C21.5474 3.59351 21.5661 3.61234 21.5668 3.61306L-7.43555 32.6154C-2.71175 37.3392 3.42083 41.1362 10.3223 42.7288C16.8916 44.2448 27.6004 44.2595 35.9299 35.93L6.92753 6.92757ZM21.5668 3.61306C21.5675 3.61378 21.5864 3.63244 21.6202 3.67626C21.6535 3.71935 21.7114 3.79963 21.785 3.92613C21.9123 4.14474 22.1997 4.69638 22.4163 5.63484C22.7326 7.00574 23.5309 12.9738 18.2523 18.2524L-10.7501 -10.7501C-19.0796 -2.42055 -19.0649 8.28829 -17.549 14.8576C-15.9563 21.759 -12.1593 27.8916 -7.43555 32.6154L21.5668 3.61306Z" fill="#70E5FF" fill-opacity="0.5"/>
</g>
<mask id="mask3_6253_4190" style="mask-type:alpha" maskUnits="userSpaceOnUse" x="4" y="0" width="17" height="25">
<path d="M4.6875 12.5C4.6875 19.4035 8.18525 25 12.5 25C16.8147 25 20.3125 19.4035 20.3125 12.5C20.3125 5.59646 16.8147 0 12.5 0C8.18525 0 4.6875 5.59646 4.6875 12.5Z" fill="white"/>
</mask>
<g mask="url(#mask3_6253_4190)">
<path d="M12.5 4.49212C19.965 4.49212 23.6207 9.27658 24.3663 10.4696C24.8768 11.2864 25.0635 11.8797 25.1282 12.1243C25.1656 12.2658 25.1814 12.3635 25.1883 12.4175C25.1953 12.4724 25.1953 12.4989 25.1953 12.4999H-15.8203C-15.8203 19.1804 -14.1687 26.2016 -10.4148 32.2078C-6.84163 37.9251 0.720259 45.5077 12.5 45.5077V4.49212ZM25.1953 12.4999C25.1953 12.5009 25.1953 12.5274 25.1883 12.5823C25.1814 12.6364 25.1656 12.7341 25.1282 12.8756C25.0635 13.1202 24.8768 13.7135 24.3663 14.5302C23.6207 15.7233 19.965 20.5077 12.5 20.5077V-20.5078C0.720253 -20.5078 -6.84164 -12.9252 -10.4148 -7.20801C-14.1687 -1.20179 -15.8203 5.81945 -15.8203 12.4999H25.1953ZM12.5 20.5077C5.03497 20.5077 1.37934 15.7233 0.633673 14.5302C0.123215 13.7135 -0.0635519 13.1202 -0.128194 12.8756C-0.165606 12.7341 -0.181444 12.6364 -0.188351 12.5823C-0.195375 12.5275 -0.195318 12.5009 -0.195318 12.4999H40.8203C40.8203 5.81945 39.1687 -1.2018 35.4148 -7.20802C31.8416 -12.9252 24.2797 -20.5078 12.5 -20.5078V20.5077ZM-0.195318 12.4999C-0.195318 12.4989 -0.195375 12.4724 -0.188351 12.4175C-0.181444 12.3635 -0.165606 12.2658 -0.128194 12.1243C-0.0635519 11.8797 0.123215 11.2864 0.633673 10.4696C1.37934 9.27658 5.03497 4.49212 12.5 4.49212V45.5077C24.2797 45.5077 31.8416 37.925 35.4148 32.2078C39.1687 26.2016 40.8203 19.1804 40.8203 12.4999H-0.195318Z" fill="#B1EAD5" fill-opacity="0.5"/>
</g>
<mask id="mask4_6253_4190" style="mask-type:alpha" maskUnits="userSpaceOnUse" x="0" y="4" width="25" height="17">
<path d="M12.5 4.68738C5.59645 4.68738 0 8.18512 0 12.4999C0 16.8146 5.59645 20.3123 12.5 20.3123C19.4036 20.3123 25 16.8146 25 12.4999C25 8.18512 19.4036 4.68738 12.5 4.68738Z" fill="white"/>
</mask>
<g mask="url(#mask4_6253_4190)">
<path d="M20.5078 12.4999C20.5078 19.965 15.7233 23.6206 14.5303 24.3663C13.7135 24.8767 13.1202 25.0635 12.8757 25.1281C12.7341 25.1655 12.6364 25.1814 12.5824 25.1883C12.5275 25.1953 12.501 25.1953 12.4999 25.1953V-15.8203C5.81949 -15.8203 -1.20178 -14.1688 -7.20799 -10.4149C-12.9251 -6.84164 -20.5078 0.720257 -20.5078 12.4999H20.5078ZM12.4999 25.1953C12.499 25.1953 12.4724 25.1953 12.4175 25.1883C12.3635 25.1814 12.2658 25.1655 12.1243 25.1281C11.8798 25.0635 11.2864 24.8767 10.4697 24.3663C9.27661 23.6206 4.49215 19.965 4.49215 12.4999H45.5078C45.5078 0.720257 37.9251 -6.84164 32.2079 -10.4149C26.2017 -14.1688 19.1804 -15.8203 12.4999 -15.8203V25.1953ZM4.49215 12.4999C4.49215 5.03494 9.27661 1.37934 10.4697 0.633677C11.2864 0.123218 11.8798 -0.0635538 12.1243 -0.128196C12.2658 -0.165607 12.3635 -0.181441 12.4175 -0.188348C12.4724 -0.195373 12.499 -0.195315 12.4999 -0.195315V40.8203C19.1804 40.8203 26.2017 39.1687 32.2079 35.4148C37.9251 31.8416 45.5078 24.2797 45.5078 12.4999H4.49215ZM12.4999 -0.195315C12.501 -0.195315 12.5275 -0.195373 12.5824 -0.188348C12.6364 -0.181441 12.7341 -0.165607 12.8757 -0.128196C13.1202 -0.0635538 13.7135 0.123218 14.5303 0.633677C15.7233 1.37934 20.5078 5.03494 20.5078 12.4999H-20.5078C-20.5078 24.2797 -12.9251 31.8416 -7.20799 35.4148C-1.20178 39.1687 5.81949 40.8203 12.4999 40.8203V-0.195315Z" fill="#FF7070" fill-opacity="0.5"/>
</g>
<mask id="mask5_6253_4190" style="mask-type:alpha" maskUnits="userSpaceOnUse" x="2" y="2" width="22" height="22">
<path d="M7.06573 7.06577C2.18417 11.9473 0.700174 18.3779 3.75112 21.4289C6.80213 24.4798 13.2327 22.9958 18.1143 18.1142C22.9958 13.2327 24.4798 6.80211 21.4288 3.75115C18.3779 0.700204 11.9473 2.18419 7.06573 7.06577Z" fill="white"/>
</mask>
<g mask="url(#mask5_6253_4190)">
<path d="M18.2523 6.92757C23.5309 12.2062 22.7326 18.1742 22.4163 19.5451C22.1997 20.4835 21.9123 21.0352 21.785 21.2538C21.7114 21.3803 21.6535 21.4606 21.6202 21.5037C21.5864 21.5475 21.5675 21.5662 21.5668 21.5669L-7.43555 -7.43552C-12.1593 -2.71172 -15.9563 3.42093 -17.549 10.3224C-19.0649 16.8916 -19.0796 27.6005 -10.7501 35.93L18.2523 6.92757ZM21.5668 21.5669C21.5661 21.5676 21.5474 21.5864 21.5036 21.6202C21.4605 21.6536 21.3803 21.7115 21.2537 21.7851C21.0351 21.9123 20.4835 22.1998 19.545 22.4164C18.1741 22.7327 12.2061 23.5309 6.92753 18.2523L35.9299 -10.75C27.6004 -19.0796 16.8916 -19.0649 10.3223 -17.5489C3.42083 -15.9562 -2.71175 -12.1593 -7.43555 -7.43552L21.5668 21.5669ZM6.92753 18.2523C1.64899 12.9738 2.4472 7.00574 2.76352 5.63484C2.98012 4.69638 3.26759 4.14479 3.39481 3.92613C3.4684 3.79962 3.52631 3.71935 3.55963 3.67625C3.59347 3.63244 3.61224 3.61377 3.61296 3.61305L32.6154 32.6154C37.3392 27.8916 41.1361 21.759 42.7288 14.8576C44.2448 8.28828 44.2595 -2.42056 35.9299 -10.75L6.92753 18.2523ZM3.61296 3.61305C3.61368 3.61233 3.6324 3.59351 3.67621 3.55967C3.71926 3.52635 3.79958 3.4685 3.92609 3.39486C4.1447 3.26763 4.69633 2.98016 5.6348 2.76361C7.00569 2.44724 12.9737 1.64903 18.2523 6.92757L-10.7501 35.93C-2.42058 44.2595 8.28824 44.2448 14.8575 42.7289C21.7589 41.1362 27.8916 37.3392 32.6154 32.6154L3.61296 3.61305Z" fill="#FFF970" fill-opacity="0.5"/>
</g>
<mask id="mask6_6253_4190" style="mask-type:alpha" maskUnits="userSpaceOnUse" x="2" y="2" width="22" height="22">
<path d="M18.1139 7.06574C13.2323 2.18419 6.80173 0.700197 3.75077 3.75117C0.699801 6.80213 2.18379 13.2327 7.06534 18.1143C11.9469 22.9958 18.3775 24.4798 21.4284 21.4288C24.4794 18.3779 22.9954 11.9473 18.1139 7.06574Z" fill="white"/>
</mask>
<g mask="url(#mask6_6253_4190)">
<path d="M18.2523 18.2524C12.9737 23.5309 7.00569 22.7327 5.6348 22.4164C4.69633 22.1998 4.1447 21.9123 3.92609 21.7851C3.79958 21.7115 3.71931 21.6536 3.67621 21.6203C3.6324 21.5864 3.61368 21.5676 3.61296 21.5669L32.6154 -7.43552C27.8916 -12.1593 21.7589 -15.9562 14.8575 -17.5489C8.28824 -19.0649 -2.42058 -19.0796 -10.7501 -10.7501L18.2523 18.2524ZM3.61296 21.5669C3.61224 21.5662 3.59347 21.5475 3.55963 21.5037C3.52631 21.4606 3.4684 21.3803 3.39481 21.2538C3.26759 21.0352 2.98012 20.4835 2.76352 19.5451C2.4472 18.1742 1.64899 12.2061 6.92753 6.92757L35.9299 35.93C44.2595 27.6005 44.2448 16.8916 42.7288 10.3224C41.1361 3.42093 37.3392 -2.71172 32.6154 -7.43552L3.61296 21.5669ZM6.92753 6.92757C12.2061 1.64902 18.1741 2.44724 19.545 2.76361C20.4835 2.98016 21.0351 3.26763 21.2537 3.39486C21.3803 3.46845 21.4605 3.52635 21.5036 3.55968C21.5474 3.59351 21.5661 3.61234 21.5668 3.61306L-7.43555 32.6154C-2.71175 37.3392 3.42083 41.1362 10.3223 42.7288C16.8916 44.2448 27.6004 44.2595 35.9299 35.93L6.92753 6.92757ZM21.5668 3.61306C21.5675 3.61378 21.5864 3.63244 21.6202 3.67626C21.6535 3.71935 21.7114 3.79963 21.785 3.92613C21.9123 4.14474 22.1997 4.69638 22.4163 5.63484C22.7326 7.00574 23.5309 12.9738 18.2523 18.2524L-10.7501 -10.7501C-19.0796 -2.42055 -19.0649 8.28829 -17.549 14.8576C-15.9563 21.759 -12.1593 27.8916 -7.43555 32.6154L21.5668 3.61306Z" fill="#70E5FF" fill-opacity="0.5"/>
</g>
<mask id="mask7_6253_4190" style="mask-type:alpha" maskUnits="userSpaceOnUse" x="4" y="0" width="17" height="25">
<path d="M4.6875 12.5C4.6875 19.4035 8.18525 25 12.5 25C16.8147 25 20.3125 19.4035 20.3125 12.5C20.3125 5.59646 16.8147 0 12.5 0C8.18525 0 4.6875 5.59646 4.6875 12.5Z" fill="white"/>
</mask>
<g mask="url(#mask7_6253_4190)">
<path d="M12.5 4.49212C19.965 4.49212 23.6207 9.27658 24.3663 10.4696C24.8768 11.2864 25.0635 11.8797 25.1282 12.1243C25.1656 12.2658 25.1814 12.3635 25.1883 12.4175C25.1953 12.4724 25.1953 12.4989 25.1953 12.4999H-15.8203C-15.8203 19.1804 -14.1687 26.2016 -10.4148 32.2078C-6.84163 37.9251 0.720259 45.5077 12.5 45.5077V4.49212ZM25.1953 12.4999C25.1953 12.5009 25.1953 12.5274 25.1883 12.5823C25.1814 12.6364 25.1656 12.7341 25.1282 12.8756C25.0635 13.1202 24.8768 13.7135 24.3663 14.5302C23.6207 15.7233 19.965 20.5077 12.5 20.5077V-20.5078C0.720253 -20.5078 -6.84164 -12.9252 -10.4148 -7.20801C-14.1687 -1.20179 -15.8203 5.81945 -15.8203 12.4999H25.1953ZM12.5 20.5077C5.03497 20.5077 1.37934 15.7233 0.633673 14.5302C0.123215 13.7135 -0.0635519 13.1202 -0.128194 12.8756C-0.165606 12.7341 -0.181444 12.6364 -0.188351 12.5823C-0.195375 12.5275 -0.195318 12.5009 -0.195318 12.4999H40.8203C40.8203 5.81945 39.1687 -1.2018 35.4148 -7.20802C31.8416 -12.9252 24.2797 -20.5078 12.5 -20.5078V20.5077ZM-0.195318 12.4999C-0.195318 12.4989 -0.195375 12.4724 -0.188351 12.4175C-0.181444 12.3635 -0.165606 12.2658 -0.128194 12.1243C-0.0635519 11.8797 0.123215 11.2864 0.633673 10.4696C1.37934 9.27658 5.03497 4.49212 12.5 4.49212V45.5077C24.2797 45.5077 31.8416 37.925 35.4148 32.2078C39.1687 26.2016 40.8203 19.1804 40.8203 12.4999H-0.195318Z" fill="#B1EAD5" fill-opacity="0.5"/>
</g>
<mask id="mask8_6253_4190" style="mask-type:alpha" maskUnits="userSpaceOnUse" x="0" y="4" width="25" height="17">
<path d="M12.5 4.68738C5.59645 4.68738 0 8.18512 0 12.4999C0 16.8146 5.59645 20.3123 12.5 20.3123C19.4036 20.3123 25 16.8146 25 12.4999C25 8.18512 19.4036 4.68738 12.5 4.68738Z" fill="white"/>
</mask>
<g mask="url(#mask8_6253_4190)">
<path d="M20.5078 12.4999C20.5078 19.965 15.7233 23.6206 14.5303 24.3663C13.7135 24.8767 13.1202 25.0635 12.8757 25.1281C12.7341 25.1655 12.6364 25.1814 12.5824 25.1883C12.5275 25.1953 12.501 25.1953 12.4999 25.1953V-15.8203C5.81949 -15.8203 -1.20178 -14.1688 -7.20799 -10.4149C-12.9251 -6.84164 -20.5078 0.720257 -20.5078 12.4999H20.5078ZM12.4999 25.1953C12.499 25.1953 12.4724 25.1953 12.4175 25.1883C12.3635 25.1814 12.2658 25.1655 12.1243 25.1281C11.8798 25.0635 11.2864 24.8767 10.4697 24.3663C9.27661 23.6206 4.49215 19.965 4.49215 12.4999H45.5078C45.5078 0.720257 37.9251 -6.84164 32.2079 -10.4149C26.2017 -14.1688 19.1804 -15.8203 12.4999 -15.8203V25.1953ZM4.49215 12.4999C4.49215 5.03494 9.27661 1.37934 10.4697 0.633677C11.2864 0.123218 11.8798 -0.0635538 12.1243 -0.128196C12.2658 -0.165607 12.3635 -0.181441 12.4175 -0.188348C12.4724 -0.195373 12.499 -0.195315 12.4999 -0.195315V40.8203C19.1804 40.8203 26.2017 39.1687 32.2079 35.4148C37.9251 31.8416 45.5078 24.2797 45.5078 12.4999H4.49215ZM12.4999 -0.195315C12.501 -0.195315 12.5275 -0.195373 12.5824 -0.188348C12.6364 -0.181441 12.7341 -0.165607 12.8757 -0.128196C13.1202 -0.0635538 13.7135 0.123218 14.5303 0.633677C15.7233 1.37934 20.5078 5.03494 20.5078 12.4999H-20.5078C-20.5078 24.2797 -12.9251 31.8416 -7.20799 35.4148C-1.20178 39.1687 5.81949 40.8203 12.4999 40.8203V-0.195315Z" fill="#FF7070" fill-opacity="0.5"/>
</g>
<mask id="mask9_6253_4190" style="mask-type:alpha" maskUnits="userSpaceOnUse" x="2" y="2" width="22" height="22">
<path d="M7.06573 7.06577C2.18417 11.9473 0.700174 18.3779 3.75112 21.4289C6.80213 24.4798 13.2327 22.9958 18.1143 18.1142C22.9958 13.2327 24.4798 6.80211 21.4288 3.75115C18.3779 0.700204 11.9473 2.18419 7.06573 7.06577Z" fill="white"/>
</mask>
<g mask="url(#mask9_6253_4190)">
<path d="M18.2523 6.92757C23.5309 12.2062 22.7326 18.1742 22.4163 19.5451C22.1997 20.4835 21.9123 21.0352 21.785 21.2538C21.7114 21.3803 21.6535 21.4606 21.6202 21.5037C21.5864 21.5475 21.5675 21.5662 21.5668 21.5669L-7.43555 -7.43552C-12.1593 -2.71172 -15.9563 3.42093 -17.549 10.3224C-19.0649 16.8916 -19.0796 27.6005 -10.7501 35.93L18.2523 6.92757ZM21.5668 21.5669C21.5661 21.5676 21.5474 21.5864 21.5036 21.6202C21.4605 21.6536 21.3803 21.7115 21.2537 21.7851C21.0351 21.9123 20.4835 22.1998 19.545 22.4164C18.1741 22.7327 12.2061 23.5309 6.92753 18.2523L35.9299 -10.75C27.6004 -19.0796 16.8916 -19.0649 10.3223 -17.5489C3.42083 -15.9562 -2.71175 -12.1593 -7.43555 -7.43552L21.5668 21.5669ZM6.92753 18.2523C1.64899 12.9738 2.4472 7.00574 2.76352 5.63484C2.98012 4.69638 3.26759 4.14479 3.39481 3.92613C3.4684 3.79962 3.52631 3.71935 3.55963 3.67625C3.59347 3.63244 3.61224 3.61377 3.61296 3.61305L32.6154 32.6154C37.3392 27.8916 41.1361 21.759 42.7288 14.8576C44.2448 8.28828 44.2595 -2.42056 35.9299 -10.75L6.92753 18.2523ZM3.61296 3.61305C3.61368 3.61233 3.6324 3.59351 3.67621 3.55967C3.71926 3.52635 3.79958 3.4685 3.92609 3.39486C4.1447 3.26763 4.69633 2.98016 5.6348 2.76361C7.00569 2.44724 12.9737 1.64903 18.2523 6.92757L-10.7501 35.93C-2.42058 44.2595 8.28824 44.2448 14.8575 42.7289C21.7589 41.1362 27.8916 37.3392 32.6154 32.6154L3.61296 3.61305Z" fill="#FFF970" fill-opacity="0.5"/>
</g>
<mask id="mask10_6253_4190" style="mask-type:alpha" maskUnits="userSpaceOnUse" x="2" y="2" width="22" height="22">
<path d="M18.1139 7.06574C13.2323 2.18419 6.80173 0.700197 3.75077 3.75117C0.699801 6.80213 2.18379 13.2327 7.06534 18.1143C11.9469 22.9958 18.3775 24.4798 21.4284 21.4288C24.4794 18.3779 22.9954 11.9473 18.1139 7.06574Z" fill="white"/>
</mask>
<g mask="url(#mask10_6253_4190)">
<path d="M18.2523 18.2524C12.9737 23.5309 7.00569 22.7327 5.6348 22.4164C4.69633 22.1998 4.1447 21.9123 3.92609 21.7851C3.79958 21.7115 3.71931 21.6536 3.67621 21.6203C3.6324 21.5864 3.61368 21.5676 3.61296 21.5669L32.6154 -7.43552C27.8916 -12.1593 21.7589 -15.9562 14.8575 -17.5489C8.28824 -19.0649 -2.42058 -19.0796 -10.7501 -10.7501L18.2523 18.2524ZM3.61296 21.5669C3.61224 21.5662 3.59347 21.5475 3.55963 21.5037C3.52631 21.4606 3.4684 21.3803 3.39481 21.2538C3.26759 21.0352 2.98012 20.4835 2.76352 19.5451C2.4472 18.1742 1.64899 12.2061 6.92753 6.92757L35.9299 35.93C44.2595 27.6005 44.2448 16.8916 42.7288 10.3224C41.1361 3.42093 37.3392 -2.71172 32.6154 -7.43552L3.61296 21.5669ZM6.92753 6.92757C12.2061 1.64902 18.1741 2.44724 19.545 2.76361C20.4835 2.98016 21.0351 3.26763 21.2537 3.39486C21.3803 3.46845 21.4605 3.52635 21.5036 3.55968C21.5474 3.59351 21.5661 3.61234 21.5668 3.61306L-7.43555 32.6154C-2.71175 37.3392 3.42083 41.1362 10.3223 42.7288C16.8916 44.2448 27.6004 44.2595 35.9299 35.93L6.92753 6.92757ZM21.5668 3.61306C21.5675 3.61378 21.5864 3.63244 21.6202 3.67626C21.6535 3.71935 21.7114 3.79963 21.785 3.92613C21.9123 4.14474 22.1997 4.69638 22.4163 5.63484C22.7326 7.00574 23.5309 12.9738 18.2523 18.2524L-10.7501 -10.7501C-19.0796 -2.42055 -19.0649 8.28829 -17.549 14.8576C-15.9563 21.759 -12.1593 27.8916 -7.43555 32.6154L21.5668 3.61306Z" fill="#70E5FF" fill-opacity="0.5"/>
</g>
<mask id="mask11_6253_4190" style="mask-type:alpha" maskUnits="userSpaceOnUse" x="4" y="0" width="17" height="25">
<path d="M4.6875 12.5C4.6875 19.4035 8.18525 25 12.5 25C16.8147 25 20.3125 19.4035 20.3125 12.5C20.3125 5.59646 16.8147 0 12.5 0C8.18525 0 4.6875 5.59646 4.6875 12.5Z" fill="white"/>
</mask>
<g mask="url(#mask11_6253_4190)">
<path d="M12.5 4.49212C19.965 4.49212 23.6207 9.27658 24.3663 10.4696C24.8768 11.2864 25.0635 11.8797 25.1282 12.1243C25.1656 12.2658 25.1814 12.3635 25.1883 12.4175C25.1953 12.4724 25.1953 12.4989 25.1953 12.4999H-15.8203C-15.8203 19.1804 -14.1687 26.2016 -10.4148 32.2078C-6.84163 37.9251 0.720259 45.5077 12.5 45.5077V4.49212ZM25.1953 12.4999C25.1953 12.5009 25.1953 12.5274 25.1883 12.5823C25.1814 12.6364 25.1656 12.7341 25.1282 12.8756C25.0635 13.1202 24.8768 13.7135 24.3663 14.5302C23.6207 15.7233 19.965 20.5077 12.5 20.5077V-20.5078C0.720253 -20.5078 -6.84164 -12.9252 -10.4148 -7.20801C-14.1687 -1.20179 -15.8203 5.81945 -15.8203 12.4999H25.1953ZM12.5 20.5077C5.03497 20.5077 1.37934 15.7233 0.633673 14.5302C0.123215 13.7135 -0.0635519 13.1202 -0.128194 12.8756C-0.165606 12.7341 -0.181444 12.6364 -0.188351 12.5823C-0.195375 12.5275 -0.195318 12.5009 -0.195318 12.4999H40.8203C40.8203 5.81945 39.1687 -1.2018 35.4148 -7.20802C31.8416 -12.9252 24.2797 -20.5078 12.5 -20.5078V20.5077ZM-0.195318 12.4999C-0.195318 12.4989 -0.195375 12.4724 -0.188351 12.4175C-0.181444 12.3635 -0.165606 12.2658 -0.128194 12.1243C-0.0635519 11.8797 0.123215 11.2864 0.633673 10.4696C1.37934 9.27658 5.03497 4.49212 12.5 4.49212V45.5077C24.2797 45.5077 31.8416 37.925 35.4148 32.2078C39.1687 26.2016 40.8203 19.1804 40.8203 12.4999H-0.195318Z" fill="#B1EAD5" fill-opacity="0.5"/>
</g>
<mask id="mask12_6253_4190" style="mask-type:alpha" maskUnits="userSpaceOnUse" x="0" y="4" width="25" height="17">
<path d="M12.5 4.68738C5.59645 4.68738 0 8.18512 0 12.4999C0 16.8146 5.59645 20.3123 12.5 20.3123C19.4036 20.3123 25 16.8146 25 12.4999C25 8.18512 19.4036 4.68738 12.5 4.68738Z" fill="white"/>
</mask>
<g mask="url(#mask12_6253_4190)">
<path d="M20.5078 12.4999C20.5078 19.965 15.7233 23.6206 14.5303 24.3663C13.7135 24.8767 13.1202 25.0635 12.8757 25.1281C12.7341 25.1655 12.6364 25.1814 12.5824 25.1883C12.5275 25.1953 12.501 25.1953 12.4999 25.1953V-15.8203C5.81949 -15.8203 -1.20178 -14.1688 -7.20799 -10.4149C-12.9251 -6.84164 -20.5078 0.720257 -20.5078 12.4999H20.5078ZM12.4999 25.1953C12.499 25.1953 12.4724 25.1953 12.4175 25.1883C12.3635 25.1814 12.2658 25.1655 12.1243 25.1281C11.8798 25.0635 11.2864 24.8767 10.4697 24.3663C9.27661 23.6206 4.49215 19.965 4.49215 12.4999H45.5078C45.5078 0.720257 37.9251 -6.84164 32.2079 -10.4149C26.2017 -14.1688 19.1804 -15.8203 12.4999 -15.8203V25.1953ZM4.49215 12.4999C4.49215 5.03494 9.27661 1.37934 10.4697 0.633677C11.2864 0.123218 11.8798 -0.0635538 12.1243 -0.128196C12.2658 -0.165607 12.3635 -0.181441 12.4175 -0.188348C12.4724 -0.195373 12.499 -0.195315 12.4999 -0.195315V40.8203C19.1804 40.8203 26.2017 39.1687 32.2079 35.4148C37.9251 31.8416 45.5078 24.2797 45.5078 12.4999H4.49215ZM12.4999 -0.195315C12.501 -0.195315 12.5275 -0.195373 12.5824 -0.188348C12.6364 -0.181441 12.7341 -0.165607 12.8757 -0.128196C13.1202 -0.0635538 13.7135 0.123218 14.5303 0.633677C15.7233 1.37934 20.5078 5.03494 20.5078 12.4999H-20.5078C-20.5078 24.2797 -12.9251 31.8416 -7.20799 35.4148C-1.20178 39.1687 5.81949 40.8203 12.4999 40.8203V-0.195315Z" fill="#FF7070" fill-opacity="0.5"/>
</g>
<mask id="mask13_6253_4190" style="mask-type:alpha" maskUnits="userSpaceOnUse" x="2" y="2" width="22" height="22">
<path d="M7.06573 7.06577C2.18417 11.9473 0.700174 18.3779 3.75112 21.4289C6.80213 24.4798 13.2327 22.9958 18.1143 18.1142C22.9958 13.2327 24.4798 6.80211 21.4288 3.75115C18.3779 0.700204 11.9473 2.18419 7.06573 7.06577Z" fill="white"/>
</mask>
<g mask="url(#mask13_6253_4190)">
<path d="M18.2523 6.92757C23.5309 12.2062 22.7326 18.1742 22.4163 19.5451C22.1997 20.4835 21.9123 21.0352 21.785 21.2538C21.7114 21.3803 21.6535 21.4606 21.6202 21.5037C21.5864 21.5475 21.5675 21.5662 21.5668 21.5669L-7.43555 -7.43552C-12.1593 -2.71172 -15.9563 3.42093 -17.549 10.3224C-19.0649 16.8916 -19.0796 27.6005 -10.7501 35.93L18.2523 6.92757ZM21.5668 21.5669C21.5661 21.5676 21.5474 21.5864 21.5036 21.6202C21.4605 21.6536 21.3803 21.7115 21.2537 21.7851C21.0351 21.9123 20.4835 22.1998 19.545 22.4164C18.1741 22.7327 12.2061 23.5309 6.92753 18.2523L35.9299 -10.75C27.6004 -19.0796 16.8916 -19.0649 10.3223 -17.5489C3.42083 -15.9562 -2.71175 -12.1593 -7.43555 -7.43552L21.5668 21.5669ZM6.92753 18.2523C1.64899 12.9738 2.4472 7.00574 2.76352 5.63484C2.98012 4.69638 3.26759 4.14479 3.39481 3.92613C3.4684 3.79962 3.52631 3.71935 3.55963 3.67625C3.59347 3.63244 3.61224 3.61377 3.61296 3.61305L32.6154 32.6154C37.3392 27.8916 41.1361 21.759 42.7288 14.8576C44.2448 8.28828 44.2595 -2.42056 35.9299 -10.75L6.92753 18.2523ZM3.61296 3.61305C3.61368 3.61233 3.6324 3.59351 3.67621 3.55967C3.71926 3.52635 3.79958 3.4685 3.92609 3.39486C4.1447 3.26763 4.69633 2.98016 5.6348 2.76361C7.00569 2.44724 12.9737 1.64903 18.2523 6.92757L-10.7501 35.93C-2.42058 44.2595 8.28824 44.2448 14.8575 42.7289C21.7589 41.1362 27.8916 37.3392 32.6154 32.6154L3.61296 3.61305Z" fill="#FFF970" fill-opacity="0.5"/>
</g>
<mask id="mask14_6253_4190" style="mask-type:alpha" maskUnits="userSpaceOnUse" x="2" y="2" width="22" height="22">
<path d="M18.1139 7.06574C13.2323 2.18419 6.80173 0.700197 3.75077 3.75117C0.699801 6.80213 2.18379 13.2327 7.06534 18.1143C11.9469 22.9958 18.3775 24.4798 21.4284 21.4288C24.4794 18.3779 22.9954 11.9473 18.1139 7.06574Z" fill="white"/>
</mask>
<g mask="url(#mask14_6253_4190)">
<path d="M18.2523 18.2524C12.9737 23.5309 7.00569 22.7327 5.6348 22.4164C4.69633 22.1998 4.1447 21.9123 3.92609 21.7851C3.79958 21.7115 3.71931 21.6536 3.67621 21.6203C3.6324 21.5864 3.61368 21.5676 3.61296 21.5669L32.6154 -7.43552C27.8916 -12.1593 21.7589 -15.9562 14.8575 -17.5489C8.28824 -19.0649 -2.42058 -19.0796 -10.7501 -10.7501L18.2523 18.2524ZM3.61296 21.5669C3.61224 21.5662 3.59347 21.5475 3.55963 21.5037C3.52631 21.4606 3.4684 21.3803 3.39481 21.2538C3.26759 21.0352 2.98012 20.4835 2.76352 19.5451C2.4472 18.1742 1.64899 12.2061 6.92753 6.92757L35.9299 35.93C44.2595 27.6005 44.2448 16.8916 42.7288 10.3224C41.1361 3.42093 37.3392 -2.71172 32.6154 -7.43552L3.61296 21.5669ZM6.92753 6.92757C12.2061 1.64902 18.1741 2.44724 19.545 2.76361C20.4835 2.98016 21.0351 3.26763 21.2537 3.39486C21.3803 3.46845 21.4605 3.52635 21.5036 3.55968C21.5474 3.59351 21.5661 3.61234 21.5668 3.61306L-7.43555 32.6154C-2.71175 37.3392 3.42083 41.1362 10.3223 42.7288C16.8916 44.2448 27.6004 44.2595 35.9299 35.93L6.92753 6.92757ZM21.5668 3.61306C21.5675 3.61378 21.5864 3.63244 21.6202 3.67626C21.6535 3.71935 21.7114 3.79963 21.785 3.92613C21.9123 4.14474 22.1997 4.69638 22.4163 5.63484C22.7326 7.00574 23.5309 12.9738 18.2523 18.2524L-10.7501 -10.7501C-19.0796 -2.42055 -19.0649 8.28829 -17.549 14.8576C-15.9563 21.759 -12.1593 27.8916 -7.43555 32.6154L21.5668 3.61306Z" fill="#70E5FF" fill-opacity="0.5"/>
</g>
<mask id="mask15_6253_4190" style="mask-type:alpha" maskUnits="userSpaceOnUse" x="4" y="0" width="17" height="25">
<path d="M4.6875 12.5C4.6875 19.4035 8.18525 25 12.5 25C16.8147 25 20.3125 19.4035 20.3125 12.5C20.3125 5.59646 16.8147 0 12.5 0C8.18525 0 4.6875 5.59646 4.6875 12.5Z" fill="white"/>
</mask>
<g mask="url(#mask15_6253_4190)">
<path d="M12.5 4.49212C19.965 4.49212 23.6207 9.27658 24.3663 10.4696C24.8768 11.2864 25.0635 11.8797 25.1282 12.1243C25.1656 12.2658 25.1814 12.3635 25.1883 12.4175C25.1953 12.4724 25.1953 12.4989 25.1953 12.4999H-15.8203C-15.8203 19.1804 -14.1687 26.2016 -10.4148 32.2078C-6.84163 37.9251 0.720259 45.5077 12.5 45.5077V4.49212ZM25.1953 12.4999C25.1953 12.5009 25.1953 12.5274 25.1883 12.5823C25.1814 12.6364 25.1656 12.7341 25.1282 12.8756C25.0635 13.1202 24.8768 13.7135 24.3663 14.5302C23.6207 15.7233 19.965 20.5077 12.5 20.5077V-20.5078C0.720253 -20.5078 -6.84164 -12.9252 -10.4148 -7.20801C-14.1687 -1.20179 -15.8203 5.81945 -15.8203 12.4999H25.1953ZM12.5 20.5077C5.03497 20.5077 1.37934 15.7233 0.633673 14.5302C0.123215 13.7135 -0.0635519 13.1202 -0.128194 12.8756C-0.165606 12.7341 -0.181444 12.6364 -0.188351 12.5823C-0.195375 12.5275 -0.195318 12.5009 -0.195318 12.4999H40.8203C40.8203 5.81945 39.1687 -1.2018 35.4148 -7.20802C31.8416 -12.9252 24.2797 -20.5078 12.5 -20.5078V20.5077ZM-0.195318 12.4999C-0.195318 12.4989 -0.195375 12.4724 -0.188351 12.4175C-0.181444 12.3635 -0.165606 12.2658 -0.128194 12.1243C-0.0635519 11.8797 0.123215 11.2864 0.633673 10.4696C1.37934 9.27658 5.03497 4.49212 12.5 4.49212V45.5077C24.2797 45.5077 31.8416 37.925 35.4148 32.2078C39.1687 26.2016 40.8203 19.1804 40.8203 12.4999H-0.195318Z" fill="#B1EAD5" fill-opacity="0.5"/>
</g>
</svg>
